<?xml version="1.0" standalone="no"?>
<!DOCTYPE svg PUBLIC "-//W3C//DTD SVG 20010904//EN"
 "http://www.w3.org/TR/2001/REC-SVG-20010904/DTD/svg10.dtd">
<svg version="1.0" xmlns="http://www.w3.org/2000/svg"
 width="900.000000pt" height="900.000000pt" viewBox="0 0 900.000000 900.000000"
 preserveAspectRatio="xMidYMid meet">
<metadata>
Created by potrace 1.16, written by Peter Selinger 2001-2019
</metadata>
<g transform="translate(0.000000,900.000000) scale(0.100000,-0.100000)"
fill="#000000" stroke="none">
<path d="M5253 8035 c-46 -30 -83 -57 -83 -60 0 -13 33 -55 43 -55 6 0 31 13
56 29 25 16 65 41 89 55 l42 26 -15 30 c-9 17 -23 30 -33 29 -9 0 -54 -25 -99
-54z"/>
<path d="M5312 7943 c-51 -31 -90 -58 -88 -61 3 -2 51 23 107 57 56 33 96 61
88 61 -8 -1 -56 -26 -107 -57z"/>
<path d="M3500 7962 c-134 -12 -250 -95 -309 -221 -23 -49 -26 -68 -26 -161 0
-99 2 -110 33 -172 103 -209 361 -275 554 -142 51 36 92 88 125 161 23 50 27
72 27 153 1 86 -2 101 -30 160 -17 36 -46 83 -64 103 -70 80 -200 130 -310
119z"/>
<path d="M5345 7914 c-49 -30 -91 -58 -93 -63 -1 -4 34 -67 78 -140 45 -73 80
-134 78 -136 -24 -18 -153 -100 -268 -170 -285 -174 -519 -289 -895 -440 -427
-173 -649 -232 -953 -257 -179 -14 -279 -2 -373 45 -163 82 -186 235 -83 546
24 74 42 136 40 138 -8 8 -146 -138 -184 -194 -146 -216 -216 -490 -167 -658
38 -133 108 -222 221 -282 117 -62 221 -82 629 -123 252 -25 322 -35 397 -55
190 -49 275 -148 300 -347 32 -256 -87 -702 -386 -1454 -64 -158 -114 -289
-112 -291 18 -18 346 299 499 482 310 374 513 791 607 1249 38 185 51 337 48
555 -2 193 -1 210 20 262 50 126 190 313 528 704 141 163 179 205 187 205 3 0
20 -27 38 -60 l32 -60 46 26 c25 15 70 40 99 56 28 16 52 32 52 35 0 6 5 -2
-155 263 -65 107 -123 200 -129 207 -8 9 -33 -2 -101 -43z"/>
<path d="M350 4205 l0 -3625 4030 0 4030 0 0 3625 0 3625 -640 0 c-417 0 -640
-3 -640 -10 0 -6 220 -11 626 -12 l626 -3 2 -3600 1 -3600 -4002 -3 -4003 -2
-2 407 c-1 225 -2 494 -2 598 -1 105 0 1543 2 3198 l2 3007 630 0 c413 0 630
3 630 10 0 7 -222 10 -645 10 l-645 0 0 -3625z"/>
<path d="M5652 7404 c-51 -31 -91 -58 -88 -61 4 -5 196 106 196 113 0 10 -22
0 -108 -52z"/>
<path d="M5675 7370 c-44 -27 -84 -51 -90 -53 -11 -5 20 -70 42 -88 10 -9 34
1 103 42 49 29 90 57 90 62 0 19 -41 87 -53 86 -6 0 -48 -23 -92 -49z"/>
<path d="M5750 6225 c-267 -33 -687 -115 -739 -145 -12 -6 103 -67 443 -235
252 -124 460 -225 461 -223 2 2 -180 100 -405 218 -225 118 -410 218 -410 221
0 10 57 17 260 35 376 33 834 0 1115 -81 228 -65 393 -183 450 -319 57 -137
-47 -392 -244 -600 -265 -277 -823 -647 -1311 -867 -124 -55 -374 -160 -455
-189 -933 -340 -1631 -474 -2284 -440 -203 11 -314 28 -431 67 -337 112 -438
319 -294 605 85 169 183 296 370 479 207 201 380 336 759 594 164 112 163 110
73 76 -483 -186 -990 -519 -1245 -816 -194 -226 -273 -400 -273 -601 0 -177
52 -288 200 -427 129 -121 324 -207 595 -262 176 -35 289 -45 528 -45 880 0
2003 302 2849 766 716 392 1149 767 1352 1171 166 332 113 620 -149 818 -123
92 -257 144 -485 187 -142 26 -561 34 -730 13z"/>
<path d="M7378 5627 c5 -150 -10 -243 -60 -387 -148 -424 -605 -919 -1223
-1325 -684 -449 -1558 -782 -2360 -899 -463 -68 -953 -59 -1297 23 -334 79
-575 221 -750 442 l-27 34 14 -42 c37 -113 151 -262 274 -361 78 -62 270 -160
396 -201 245 -80 487 -113 825 -114 249 0 379 9 620 44 1394 202 2842 997
3420 1879 221 338 291 664 201 943 -18 53 -33 97 -34 97 -2 0 -1 -60 1 -133z"/>
<path d="M4900 2525 c-6 -8 -9 -23 -6 -33 5 -13 1 -22 -10 -26 -34 -13 2 -26
54 -19 54 6 65 23 22 33 -30 7 -38 30 -11 30 12 0 21 6 21 15 0 20 -53 20 -70
0z"/>
<path d="M2712 2408 c-29 -29 -1 -71 39 -61 24 7 26 58 3 67 -22 8 -28 8 -42
-6z"/>
<path d="M2797 2413 c-12 -11 -7 -50 7 -62 21 -18 56 3 56 33 0 29 -44 49 -63
29z"/>
<path d="M5072 2408 c-29 -29 -1 -71 39 -61 24 7 26 58 3 67 -22 8 -28 8 -42
-6z"/>
<path d="M5163 2413 c-19 -7 -16 -51 4 -62 25 -13 53 4 53 33 0 29 -25 42 -57
29z"/>
<path d="M7144 2406 c-12 -31 0 -51 31 -51 27 0 30 3 30 30 0 25 -4 30 -28 33
-17 2 -29 -2 -33 -12z"/>
<path d="M7234 2406 c-12 -31 0 -51 31 -51 27 0 30 3 30 30 0 25 -4 30 -28 33
-17 2 -29 -2 -33 -12z"/>
<path d="M2980 2241 c0 -88 -4 -171 -10 -186 -9 -25 -13 -26 -72 -23 l-63 3
-3 112 c-3 120 -5 124 -59 115 -21 -4 -22 -9 -25 -116 l-3 -111 -57 -3 -58 -3
0 57 c0 81 -17 129 -61 169 -38 34 -103 55 -119 39 -4 -5 -11 -19 -15 -31 -5
-20 -3 -23 22 -23 63 0 103 -59 103 -154 l0 -55 -82 -3 c-77 -3 -83 -5 -86
-25 -3 -20 1 -22 60 -25 35 -2 126 -1 203 3 77 3 167 2 199 -2 81 -11 145 3
173 36 22 25 23 33 23 206 l0 179 -35 0 -35 0 0 -159z"/>
<path d="M3120 2190 l0 -210 35 0 35 0 0 210 0 210 -35 0 -35 0 0 -210z"/>
<path d="M4000 2164 l0 -236 -29 -29 c-16 -16 -36 -29 -45 -29 -45 0 -86 43
-86 91 0 17 -6 20 -37 17 -34 -3 -38 -6 -35 -28 7 -51 33 -89 76 -110 99 -47
196 -5 227 100 9 28 17 38 33 38 161 6 308 1 351 -13 63 -19 124 -19 149 0 13
10 43 15 82 15 103 0 134 26 134 113 0 132 -70 193 -234 204 -113 7 -154 -8
-183 -67 -18 -34 -23 -61 -23 -122 l0 -78 -49 0 c-59 0 -61 4 -61 138 l0 92
-35 0 -35 0 0 -99 c0 -55 -3 -106 -6 -115 -5 -12 -20 -16 -60 -16 l-54 0 0
185 0 185 -40 0 -40 0 0 -236z m545 61 c23 -22 25 -32 25 -120 0 -110 -4 -115
-72 -94 l-43 14 0 87 c0 78 2 89 24 112 30 32 36 32 66 1z m136 -6 c45 -22 69
-66 69 -123 0 -57 -8 -66 -55 -66 l-42 0 -6 83 c-4 45 -9 92 -13 105 -8 27 -4
27 47 1z"/>
<path d="M4899 2396 c-2 -2 -2 -88 1 -191 5 -179 6 -188 28 -205 21 -17 46
-19 327 -18 l304 0 26 23 25 24 0 186 0 185 -35 0 -35 0 0 -169 c0 -93 -3
-176 -6 -185 -9 -23 -119 -23 -128 0 -3 9 -6 92 -6 185 l0 169 -35 0 -35 0 0
-168 c0 -201 -1 -205 -80 -200 l-55 3 -3 113 -3 112 -40 0 -40 0 3 -103 c1
-56 -2 -108 -6 -115 -12 -19 -122 -16 -130 4 -3 9 -6 92 -6 185 l0 169 -33 0
c-19 0 -36 -2 -38 -4z"/>
<path d="M6090 2164 l0 -236 -29 -29 c-16 -16 -36 -29 -45 -29 -45 0 -86 43
-86 90 0 16 -7 20 -33 20 -19 0 -36 -2 -39 -6 -14 -14 14 -81 46 -111 88 -81
225 -40 256 76 l11 44 65 -7 c35 -4 76 -11 90 -16 14 -6 48 -10 75 -10 40 0
55 5 74 25 23 22 25 31 25 127 0 83 -4 109 -19 134 -25 40 -83 68 -128 61 -83
-14 -113 -63 -113 -187 l0 -80 -35 0 -35 0 0 185 0 185 -40 0 -40 0 0 -236z
m314 60 c23 -22 27 -49 24 -139 -3 -90 -7 -94 -77 -75 l-41 11 0 80 c0 95 17
139 55 139 13 0 31 -7 39 -16z"/>
<path d="M6572 2215 l3 -187 28 -24 28 -24 307 0 c343 0 343 0 362 68 5 20 10
76 10 125 l0 87 -40 0 -39 0 -3 -112 -3 -113 -65 -3 -65 -3 0 61 c0 55 -3 64
-28 85 -35 31 -81 43 -184 51 -87 7 -95 13 -68 51 17 24 99 53 149 53 40 0 59
13 54 36 -3 16 -12 19 -58 16 -134 -7 -230 -64 -230 -134 0 -57 14 -65 123
-72 55 -4 114 -13 133 -21 34 -14 35 -15 32 -67 l-3 -53 -174 -3 c-115 -2
-178 1 -185 8 -7 7 -11 74 -11 183 l0 172 -38 3 -38 3 3 -186z"/>
<path d="M3331 2282 c-19 -10 -43 -34 -53 -53 -23 -43 -24 -148 -2 -190 18
-36 67 -59 123 -59 50 0 56 -11 35 -55 -17 -36 -57 -55 -116 -55 -24 0 -28 -4
-28 -26 0 -27 0 -27 63 -22 76 6 121 28 147 71 17 28 20 51 20 172 0 160 -12
194 -75 221 -46 19 -73 18 -114 -4z m103 -67 c11 -17 16 -48 16 -105 l0 -80
-35 0 c-72 0 -107 80 -74 167 19 50 66 59 93 18z"/>
<path d="M2268 2263 c-16 -4 -18 -21 -18 -168 0 -156 -1 -165 -22 -190 -17
-19 -36 -27 -75 -32 -48 -5 -53 -8 -53 -31 0 -24 1 -25 60 -19 67 6 113 28
144 70 19 26 21 44 25 198 2 110 -1 169 -7 169 -6 0 -16 2 -24 4 -7 2 -21 2
-30 -1z"/>
<path d="M1810 2161 c0 -55 -3 -106 -6 -115 -5 -13 -26 -16 -128 -16 -82 0
-126 4 -134 12 -7 7 -12 42 -12 85 l0 73 -35 0 -35 0 0 -79 c0 -71 3 -83 26
-110 l25 -31 274 1 274 1 25 25 c25 25 26 31 26 139 l0 114 -35 0 -35 0 0 -99
c0 -55 -3 -106 -6 -115 -5 -12 -21 -16 -70 -16 -80 0 -84 7 -84 134 l0 96 -35
0 -35 0 0 -99z"/>
<path d="M1644 1896 c-11 -28 1 -51 28 -54 31 -4 48 29 28 53 -16 19 -49 19
-56 1z"/>
<path d="M4160 1895 c-6 -8 -10 -22 -8 -32 4 -25 48 -30 65 -8 26 37 -27 76
-57 40z"/>
<path d="M4244 1885 c-8 -32 6 -48 37 -43 19 2 24 9 24 33 0 25 -4 31 -27 33
-22 3 -29 -2 -34 -23z"/>
<path d="M1924 1886 c-10 -27 1 -51 25 -54 31 -5 45 11 37 42 -5 19 -13 26
-32 26 -13 0 -27 -6 -30 -14z"/>
<path d="M2014 1886 c-11 -28 1 -51 28 -54 31 -4 48 29 28 53 -16 19 -49 19
-56 1z"/>
<path d="M1450 1360 c0 -120 2 -131 18 -128 15 3 17 17 16 128 0 109 -3 125
-17 128 -15 3 -17 -10 -17 -128z"/>
<path d="M2655 1480 c-7 -12 2 -30 16 -30 5 0 9 9 9 20 0 21 -15 27 -25 10z"/>
<path d="M3240 1471 c-5 -11 -10 -26 -10 -34 0 -8 -8 -18 -17 -22 -17 -6 -17
-7 0 -19 14 -11 17 -28 17 -90 0 -61 3 -76 15 -76 12 0 15 15 15 75 0 64 3 76
20 85 11 6 20 15 20 19 0 5 -9 11 -20 14 -11 3 -20 10 -20 16 0 6 9 15 20 21
27 15 25 30 -5 30 -14 0 -29 -8 -35 -19z"/>
<path d="M3717 1484 c-13 -14 6 -24 44 -24 l39 0 0 -115 c0 -108 1 -115 20
-115 19 0 20 7 20 115 l0 115 40 0 c29 0 40 4 40 15 0 12 -18 15 -98 15 -54 0
-102 -3 -105 -6z"/>
<path d="M4264 1479 c-10 -17 13 -36 27 -22 12 12 4 33 -11 33 -5 0 -12 -5
-16 -11z"/>
<path d="M4540 1470 c0 -11 7 -20 15 -20 8 0 15 9 15 20 0 11 -7 20 -15 20 -8
0 -15 -9 -15 -20z"/>
<path d="M5628 1453 c-3 -39 -4 -39 -50 -26 -11 3 -29 -7 -48 -25 -25 -26 -30
-38 -30 -79 0 -73 24 -94 98 -90 l57 3 3 127 c2 106 0 127 -12 127 -10 0 -16
-13 -18 -37z m-4 -102 c11 -37 -3 -74 -33 -91 -49 -26 -84 77 -41 120 27 27
62 13 74 -29z"/>
<path d="M5849 1475 c-24 -13 -39 -37 -54 -91 -10 -38 12 -107 42 -132 25 -21
36 -23 95 -19 40 2 71 0 77 -6 8 -8 14 -8 21 -1 8 8 6 15 -4 23 -13 11 -13 16
-1 34 14 22 19 59 17 111 -1 17 -15 41 -36 62 -30 30 -40 34 -82 34 -27 -1
-61 -7 -75 -15z m130 -39 c17 -18 22 -36 23 -76 0 -61 -11 -77 -40 -61 -21 11
-42 -2 -22 -14 20 -13 9 -25 -23 -25 -51 0 -82 39 -82 100 0 37 5 54 24 74 33
35 88 36 120 2z"/>
<path d="M6470 1360 c0 -109 2 -130 15 -130 13 0 15 21 15 130 0 109 -2 130
-15 130 -13 0 -15 -21 -15 -130z"/>
<path d="M6545 1480 c-7 -12 2 -30 16 -30 5 0 9 9 9 20 0 21 -15 27 -25 10z"/>
<path d="M6641 1471 c-6 -11 -11 -26 -11 -34 0 -8 -8 -18 -17 -22 -17 -6 -17
-7 1 -20 15 -12 18 -26 17 -90 -1 -61 1 -75 14 -75 12 0 15 14 15 75 0 65 3
76 21 85 11 7 22 10 23 8 2 -2 15 -37 30 -79 31 -85 31 -117 1 -133 -11 -6
-22 -12 -25 -14 -11 -7 24 -19 41 -15 22 6 30 19 52 83 8 25 27 75 41 113 23
61 24 67 8 67 -13 0 -24 -18 -41 -70 -12 -38 -24 -70 -25 -70 -2 0 -13 28 -26
63 -27 74 -32 81 -67 82 -33 0 -43 24 -14 32 27 7 22 27 -7 31 -13 2 -25 -4
-31 -17z"/>
<path d="M6897 1475 c-8 -19 13 -31 23 -14 9 14 4 29 -10 29 -4 0 -10 -7 -13
-15z"/>
<path d="M1747 1463 c-4 -3 -7 -14 -7 -24 0 -9 -6 -20 -12 -23 -10 -5 -10 -7
0 -12 7 -3 12 -25 12 -52 0 -26 3 -64 6 -84 6 -34 10 -38 35 -38 34 0 36 9 9
33 -18 15 -20 27 -18 75 2 41 7 57 17 57 8 0 16 6 19 13 2 6 -4 12 -12 12 -9
0 -21 11 -26 25 -10 27 -13 29 -23 18z"/>
<path d="M2555 1461 c-3 -6 -4 -15 0 -20 3 -6 -3 -15 -12 -20 -17 -10 -17 -12
-1 -24 13 -10 18 -32 20 -88 3 -72 4 -74 31 -77 28 -3 38 15 12 24 -11 5 -15
22 -15 69 0 47 4 64 15 69 19 7 20 26 1 26 -8 0 -16 10 -18 22 -3 24 -23 35
-33 19z"/>
<path d="M1598 1416 c-16 -8 -28 -11 -28 -5 0 5 -7 9 -15 9 -12 0 -15 -17 -15
-95 0 -78 3 -95 15 -95 12 0 15 14 15 68 0 75 10 92 51 92 30 0 39 -25 39
-112 0 -35 4 -48 13 -46 8 3 13 31 15 81 2 66 0 79 -18 97 -24 24 -36 25 -72
6z"/>
<path d="M1885 1416 c-51 -22 -69 -89 -40 -145 16 -32 33 -41 76 -41 38 0 88
45 69 63 -9 9 -15 7 -27 -10 -20 -30 -67 -31 -87 -1 -21 30 -7 38 67 38 54 0
57 1 57 24 0 28 -36 72 -65 80 -11 3 -34 -1 -50 -8z m65 -34 c32 -26 18 -42
-36 -42 -38 0 -44 3 -44 20 0 12 10 24 23 30 31 12 32 12 57 -8z"/>
<path d="M2077 1423 c-25 -6 -47 -55 -47 -102 0 -53 7 -69 41 -87 26 -13 32
-13 60 1 31 16 31 16 24 -7 -8 -25 -32 -48 -50 -48 -7 0 -23 9 -36 21 -21 18
-24 19 -27 4 -6 -28 18 -45 63 -45 35 0 48 5 64 26 18 23 21 41 21 130 l0 103
-27 -1 c-16 0 -37 2 -48 5 -11 3 -28 3 -38 0z m58 -43 c22 -24 25 -81 6 -104
-21 -25 -56 -20 -69 9 -18 38 -15 72 8 95 25 25 32 25 55 0z"/>
<path d="M2294 1416 c-13 -10 -23 -11 -31 -4 -24 19 -31 -3 -30 -92 1 -65 5
-90 14 -90 9 0 13 16 13 49 0 66 14 99 45 107 27 7 29 12 17 31 -7 10 -12 10
-28 -1z"/>
<path d="M2405 1423 c-26 -7 -55 -33 -55 -50 0 -17 27 -17 37 1 13 23 49 28
67 11 24 -25 20 -32 -25 -39 -63 -10 -79 -22 -79 -59 0 -18 5 -38 12 -45 15
-15 63 -15 91 -1 16 9 22 9 25 0 4 -13 42 -15 42 -2 0 6 -4 13 -10 16 -5 3
-10 37 -10 74 0 43 -5 72 -13 79 -16 14 -57 21 -82 15z m60 -132 c-12 -38 -90
-41 -83 -4 4 20 68 46 81 33 5 -4 6 -17 2 -29z"/>
<path d="M2770 1417 c-47 -24 -64 -92 -35 -146 16 -33 33 -41 80 -41 87 0 106
160 22 190 -37 12 -37 12 -67 -3z m82 -63 c14 -31 2 -71 -28 -91 -54 -35 -97
76 -45 118 27 22 56 12 73 -27z"/>
<path d="M2995 1420 c-11 -4 -30 -6 -42 -3 -23 5 -23 4 -23 -91 0 -79 3 -96
15 -96 12 0 15 14 15 68 0 75 10 92 51 92 30 0 39 -25 39 -111 0 -37 4 -49 15
-49 12 0 15 15 15 78 0 47 -5 84 -12 94 -17 21 -48 29 -73 18z"/>
<path d="M3364 1420 c-54 -22 -73 -113 -33 -164 16 -20 29 -26 59 -26 56 0 82
26 87 86 4 43 2 54 -18 77 -27 30 -64 40 -95 27z m80 -72 c13 -35 -12 -82 -45
-86 -30 -4 -47 13 -55 56 -5 25 -1 36 20 57 25 25 29 26 49 12 12 -8 26 -25
31 -39z"/>
<path d="M3525 1421 c-6 -6 -9 -50 -7 -100 3 -71 7 -91 18 -91 11 0 14 16 14
71 0 69 1 71 30 82 29 11 39 30 21 41 -4 3 -16 -1 -27 -8 -16 -12 -20 -12 -29
0 -7 10 -14 11 -20 5z"/>
<path d="M4010 1420 c-8 -5 -25 -7 -37 -3 -23 5 -23 4 -23 -91 0 -79 3 -96 15
-96 12 0 15 13 15 58 0 60 19 102 46 102 8 0 14 9 14 20 0 22 -7 25 -30 10z"/>
<path d="M4130 1422 c-29 -4 -60 -29 -60 -49 0 -18 29 -17 36 2 13 32 74 28
74 -5 0 -12 -11 -19 -37 -23 -75 -12 -107 -62 -65 -100 22 -20 73 -22 90 -5 9
9 15 9 24 0 14 -14 48 -16 48 -3 0 6 -4 13 -10 16 -5 3 -10 34 -10 68 0 34 -4
67 -8 74 -11 17 -53 30 -82 25z m46 -136 c-11 -18 -25 -26 -46 -26 -25 0 -30
4 -30 25 0 19 7 26 28 31 15 3 32 7 37 9 21 6 27 -15 11 -39z"/>
<path d="M4411 1418 c-13 -4 -32 -6 -42 -3 -18 6 -19 -1 -19 -89 0 -109 15
-129 22 -31 6 75 20 97 57 93 25 -3 26 -5 29 -80 2 -60 6 -78 17 -78 20 0 22
162 3 177 -22 17 -42 21 -67 11z"/>
<path d="M4678 1415 c-16 -7 -28 -10 -28 -4 0 5 -7 9 -15 9 -12 0 -15 -17 -15
-95 0 -78 3 -95 15 -95 12 0 15 14 15 70 0 62 3 71 24 85 47 31 66 3 66 -98 0
-42 3 -58 13 -55 17 6 22 148 5 170 -19 24 -50 29 -80 13z"/>
<path d="M4853 1420 c-12 -5 -26 -18 -32 -29 -16 -29 -13 -113 4 -138 19 -27
59 -34 85 -16 27 19 34 12 19 -21 -16 -34 -44 -42 -75 -21 -29 19 -43 12 -28
-13 16 -25 95 -28 117 -4 23 25 36 242 15 242 -8 0 -19 -5 -24 -10 -8 -8 -15
-6 -24 5 -14 17 -25 18 -57 5z m62 -40 c22 -24 25 -81 6 -104 -18 -22 -58 -20
-71 3 -16 31 -12 79 10 101 25 25 32 25 55 0z"/>
<path d="M5162 1423 c-12 -2 -29 -18 -37 -34 -19 -35 -6 -38 36 -7 23 17 34
20 47 12 35 -22 26 -42 -23 -50 -25 -3 -53 -13 -60 -21 -18 -18 -20 -64 -3
-81 15 -15 63 -15 91 -1 16 9 22 9 25 0 6 -17 42 -13 42 4 0 8 -4 15 -10 15
-6 0 -10 30 -10 69 0 43 -5 72 -13 79 -16 14 -56 21 -85 15z m68 -117 c0 -31
-22 -48 -57 -44 -42 5 -38 40 7 55 48 16 50 16 50 -11z"/>
<path d="M5368 1416 c-16 -8 -28 -11 -28 -5 0 5 -7 9 -15 9 -12 0 -15 -17 -15
-95 0 -78 3 -95 15 -95 12 0 15 13 15 61 0 75 12 99 49 99 36 0 41 -13 41 -97
0 -47 3 -64 13 -61 8 3 13 31 15 81 2 66 0 79 -18 97 -24 24 -36 25 -72 6z"/>
<path d="M6320 1423 c-24 -9 -50 -35 -50 -50 0 -17 27 -17 37 0 11 18 39 28
58 21 18 -7 20 -44 3 -44 -39 0 -90 -23 -100 -45 -25 -54 46 -97 103 -62 17
10 23 10 26 0 3 -7 13 -13 24 -13 20 0 24 10 10 26 -5 5 -11 39 -13 76 -2 38
-8 72 -14 78 -13 13 -65 21 -84 13z m56 -138 c-22 -33 -69 -32 -74 1 -3 18 4
24 35 31 48 12 61 2 39 -32z"/>
<path d="M7190 1402 c-68 -69 -17 -203 66 -171 33 12 36 9 21 -21 -15 -30 -49
-37 -67 -15 -16 19 -40 20 -40 1 0 -25 28 -37 76 -34 65 4 74 23 74 155 l0
102 -27 -1 c-16 0 -38 3 -50 7 -17 5 -29 0 -53 -23z m96 -48 c4 -14 2 -40 -3
-57 -7 -26 -15 -33 -39 -35 -24 -2 -33 2 -42 23 -18 39 -15 63 13 91 20 20 29
23 45 14 11 -6 23 -22 26 -36z"/>
<path d="M2650 1326 c0 -79 3 -96 15 -96 12 0 15 16 15 85 0 47 0 88 1 93 0 4
-7 8 -15 10 -14 3 -16 -11 -16 -92z"/>
<path d="M4270 1324 c0 -72 3 -95 13 -92 8 3 13 34 15 96 2 77 0 92 -13 92
-12 0 -15 -16 -15 -96z"/>
<path d="M4540 1325 c0 -78 3 -95 15 -95 12 0 15 17 15 95 0 78 -3 95 -15 95
-12 0 -15 -17 -15 -95z"/>
<path d="M6073 1404 c-9 -24 3 -143 17 -159 14 -17 67 -20 90 -5 9 6 17 5 22
-3 17 -25 28 19 26 98 -2 63 -6 80 -18 80 -11 0 -16 -15 -18 -65 -3 -73 -14
-92 -51 -88 -25 3 -26 5 -29 81 -2 60 -6 77 -18 77 -8 0 -17 -7 -21 -16z"/>
<path d="M6547 1414 c-11 -12 -8 -172 4 -179 6 -4 12 -5 14 -4 2 2 5 44 7 93
3 83 -5 110 -25 90z"/>
<path d="M6898 1328 c2 -51 6 -95 8 -98 12 -11 20 27 23 105 2 77 1 85 -16 85
-17 0 -18 -8 -15 -92z"/>
<path d="M6974 1411 c-2 -2 -4 -44 -4 -93 0 -72 3 -88 15 -88 8 0 15 1 16 3 0
1 3 31 6 67 6 75 16 92 52 88 25 -3 26 -5 29 -80 2 -57 6 -78 16 -78 20 0 23
16 22 91 -1 88 -12 100 -88 97 -33 -2 -62 -5 -64 -7z"/>
</g>
</svg>
